<?xml version="1.0" encoding="utf-8"?>
<!-- Generator: Adobe Illustrator 27.0.1, SVG Export Plug-In . SVG Version: 6.00 Build 0)  -->
<svg version="1.1" id="Layer_1" xmlns="http://www.w3.org/2000/svg" xmlns:xlink="http://www.w3.org/1999/xlink" x="0px" y="0px"
	 viewBox="0 0 432.5 112.1" style="enable-background:new 0 0 432.5 112.1;" xml:space="preserve">
<style type="text/css">
	.st0{fill:#1A1A1A;}
</style>
<g>
	<path class="st0" d="M11.5,7.5h40c6.1,0,11.5,0.9,16.2,2.8c4.7,1.9,8.5,4.6,11.5,8.2c3,3.6,5.1,7.9,6.2,13c0.7,3.1,1,5.9,1,8.4
		c0,8.9-3,16-9,21.3L77,61.7l-3.1,2.4L72,65.5l11.3,15c2.2,2.9,3.3,6.2,3.3,9.8c0,2.4-0.6,4.7-1.7,6.9c-1.1,2.2-2.7,4.1-4.8,5.6
		c-2.8,2-5.7,3-8.8,3c-5.5,0-10.2-2.9-14.1-8.8L37.4,67.4v22.8c0,2.9-0.7,5.4-2,7.7c-1.4,2.3-3.2,4.1-5.5,5.5c-2.3,1.4-4.9,2-7.7,2
		c-4.2-0.1-7.8-1.7-10.8-4.7c-3-3.1-4.5-6.7-4.5-11v-77C6.6,7.4,11.5,7.5,11.5,7.5 M37.5,45.9h12.8c1.5,0,2.8-0.6,3.9-1.8
		c1.1-1.2,1.6-2.7,1.6-4.6c0-1.5-0.6-2.7-1.6-3.7c-1-1-2.1-1.5-3.4-1.5H37.5V45.9z"/>
	<path class="st0" d="M93.4,6.6h12.7c2.7,0,5.3,0.7,7.6,2c2.4,1.4,4.2,3.2,5.6,5.6c1.4,2.4,2,5,2,7.9V90c0,2-0.4,4-1.1,5.9
		c-0.8,1.9-1.9,3.6-3.3,5.1c-3,2.9-6.6,4.4-10.8,4.4c-4.4,0-8.1-1.5-10.9-4.5c-3-3-4.6-6.8-4.6-11.2V9.3C90.6,6.4,93.4,6.6,93.4,6.6
		"/>
	<path class="st0" d="M128.9,6.3h12.5c4.6,0,9,2.4,13.2,7.3l33.8,40.1V9.8c-0.2-3.6,4.2-3.3,4.2-3.3h11.2c2.1,0,4.1,0.4,5.9,1.1
		c1.9,0.8,3.5,1.9,4.8,3.3c1.4,1.3,2.5,3,3.3,5c0.8,2,1.2,4,1.2,6.1v67.8c0,0.6-0.1,1.7-0.3,3.1c-0.4,2.4-1.4,4.5-2.9,6.4
		c-1.5,1.9-3.3,3.3-5.4,4.4c-2.1,1-4.4,1.6-6.9,1.6c-2.9,0-5.6-0.7-8-2.2c-1.7-1.2-3-2.3-3.8-3.4L157,56.9v32.9
		c0,4.5-1.5,8.2-4.5,11.2c-2.9,2.9-6.4,4.4-10.5,4.4c-4.5,0-8.1-1.6-11.1-4.7c-3.1-3.7-4.7-7.8-4.7-12.3V9.4
		C126.2,6.2,128.9,6.3,128.9,6.3"/>
	<path class="st0" d="M308.7,45.3h-40.4h-1.7l0,0c-3.3,0-3.2,3.3-3.2,3.3v0.3v3.6c0,11,9,20,20,20h0l0,0h2.1h5.6
		c-1.9,2.6-5.2,4.4-9.8,5.3c-2.3,0.6-4.5,0.8-6.9,0.8c-3.9,0-7.3-0.7-10.4-2.2c-3.1-1.5-5.6-3.6-7.6-6.4c-2-2.8-3.4-6.1-4.2-9.9
		c-0.3-1.4-0.4-2.9-0.4-4.4c0-1.2,0.1-2.4,0.4-3.6c0.7-3.8,2-7.2,4-10.1s4.5-5.1,7.5-6.6c3-1.5,6.4-2.2,10.1-2.2
		c4.7,0,9.7,1.3,15.1,3.8c0.6,0.3,1.6,0.7,2.8,1.4l5.6,2.9h0.1c2.6,1.1,5,1.6,7.3,1.6c3.1,0,5.8-1,8-2.9c3.1-2.7,4.7-5.8,4.7-9.2
		c0-5.7-3.8-11-11.4-16c-3.7-2.3-7.7-4.1-12-5.5c-4.4-1.4-8.9-2.3-13.6-2.7c-2.6-0.2-4.6-0.3-6-0.3c-10.7,0-20.3,2.6-28.7,7.9
		c-7.7,4.9-13.7,11-17.9,18.4c-4.2,7.4-6.3,15.3-6.3,23.6c0,6.3,1.3,12.6,3.8,18.7c2.2,5.2,5.2,9.8,8.8,13.9c3.7,4.1,8,7.4,12.9,10
		c4.9,2.6,10.4,4.4,16.5,5.4c4.4,0.7,8.4,1,12.1,1c6.4,0,12.2-0.9,17.5-2.7c5.3-1.8,10-4.4,14.1-7.8c4.1-3.4,7.5-7.5,10.1-12.2
		c2.4-4.3,3.9-8.5,4.5-12.5c0.6-3.2,0.9-6.3,0.9-9.4C322.9,50.5,318.2,45.3,308.7,45.3"/>
	<path class="st0" d="M416.8,28.4c-2.3-3.4-5-6.5-8-9.2c-3.1-2.7-6.4-5-10.1-6.9c-3.7-1.9-7.6-3.4-11.6-4.4c-4.1-1-8.2-1.5-12.3-1.5
		c-5.5,0-11,0.9-16.2,2.6c-5.3,1.8-10.1,4.3-14.5,7.6c-4.4,3.3-8.2,7.2-11.3,11.8c-1.9,2.7-3.5,5.7-4.9,8.8c-1.3,3.1-2.4,6.3-3,9.5
		c-0.7,3.2-1,6.3-1,9.4c0,3.2,0.3,6.4,1,9.5c0.7,3.1,1.7,6.3,3,9.4c1.3,3.1,3,6,4.9,8.8c3.1,4.6,6.8,8.5,11.3,11.8
		c4.4,3.3,9.3,5.9,14.6,7.6c5.3,1.7,10.7,2.6,16.2,2.6c4.2,0,8.3-0.5,12.5-1.6c4.2-1.1,8-2.5,11.5-4.3s6.8-4.1,10-6.9
		c3.2-2.8,5.9-5.9,8.2-9.2c2.9-4.2,5.1-8.6,6.6-13.3c1.5-4.7,2.3-9.5,2.3-14.4C425.7,46.2,422.8,37,416.8,28.4 M378.3,22.1
		c1.4-5.3,5.7-8.8,9.7-7.7c4,1,6.2,6.2,4.8,11.4c-1.4,5.3-5.7,8.8-9.7,7.7C379.1,32.5,376.9,27.4,378.3,22.1 M362.9,14.4
		c4-1,8.4,2.4,9.7,7.7c1.4,5.3-0.8,10.4-4.8,11.4s-8.4-2.4-9.7-7.7C356.7,20.5,358.9,15.4,362.9,14.4 M347.4,41.1
		c-2.5-4.1-2.1-8.9,1-10.8s7.6-0.2,10.2,3.9s2.1,8.9-1,10.8S349.9,45.2,347.4,41.1 M396,62.5c-0.1,0.2-0.1,0.4-0.2,0.5
		c-0.1,0.2-0.1,0.3-0.2,0.5c-0.9,2.2-2,4.2-3.4,6.1c-1.7,2.1-3.6,3.9-5.7,5.3c-2.1,1.4-4.6,2.4-7.2,2.9c-1.5,0.3-2.9,0.4-4.3,0.4
		c-4,0-7.6-1-11-3.1c-3.3-2.1-6-5-8-8.8c-0.5-1-1-2-1.3-3c0,0,0,0,0,0c-0.1-0.4-0.3-0.9-0.4-1.3c-0.6-3.3,0.4-6.3,2.2-8.9
		c0.7-1.1,1.6-2.1,2.5-2.9c2.2-1.9,4-4.2,5.7-6.6c1-1.5,2.1-2.9,3.3-4.3c1.2-1.4,2.6-2.7,4.4-3.1c3.8-0.9,7.1-0.1,9.8,2.8
		c1.3,1.4,2.3,3.1,3.3,4.7c1.5,2.4,3.2,4.5,5.3,6.4c2.2,1.9,3.9,4.3,4.7,7.1C396.3,58.9,396.4,60.7,396,62.5
		C396,62.5,396,62.5,396,62.5 M403.5,41.1c-2.5,4.1-7.1,5.8-10.2,3.9c-3.1-1.9-3.6-6.8-1-10.8c2.5-4.1,7.1-5.8,10.2-3.9
		C405.5,32.2,406,37.1,403.5,41.1"/>
</g>
</svg>
